<svg width="32" height="32" viewBox="0 0 32 32" fill="none" xmlns="http://www.w3.org/2000/svg">
<path fill-rule="evenodd" clip-rule="evenodd" d="M13.3333 26.6667C13.3333 28.8759 11.5424 30.6667 9.33325 30.6667C7.12411 30.6667 5.33325 28.8759 5.33325 26.6667C5.33325 24.4576 7.12411 22.6667 9.33325 22.6667C11.5424 22.6667 13.3333 24.4576 13.3333 26.6667ZM10.6666 26.6667C10.6666 27.4031 10.0696 28.0001 9.33325 28.0001C8.59687 28.0001 7.99992 27.4031 7.99992 26.6667C7.99992 25.9304 8.59687 25.3334 9.33325 25.3334C10.0696 25.3334 10.6666 25.9304 10.6666 26.6667Z" fill="white"/>
<path fill-rule="evenodd" clip-rule="evenodd" d="M26.6666 26.6667C26.6666 28.8759 24.8757 30.6667 22.6666 30.6667C20.4574 30.6667 18.6666 28.8759 18.6666 26.6667C18.6666 24.4576 20.4574 22.6667 22.6666 22.6667C24.8757 22.6667 26.6666 24.4576 26.6666 26.6667ZM23.9999 26.6667C23.9999 27.4031 23.403 28.0001 22.6666 28.0001C21.9302 28.0001 21.3333 27.4031 21.3333 26.6667C21.3333 25.9304 21.9302 25.3334 22.6666 25.3334C23.403 25.3334 23.9999 25.9304 23.9999 26.6667Z" fill="white"/>
<path fill-rule="evenodd" clip-rule="evenodd" d="M2.80732 3.4036C3.13663 2.74496 3.93753 2.478 4.59617 2.80732L5.93418 3.47632C7.1732 4.09583 8.00348 5.31231 8.1289 6.69189L8.19269 7.39358C8.22391 7.73696 8.51181 7.99989 8.85662 7.99989H26.4472C28.7746 7.99989 30.3855 10.3245 29.5683 12.5036L27.2305 18.7377C26.6451 20.2989 25.1526 21.3332 23.4852 21.3332H10.4351C8.36631 21.3332 6.63885 19.7557 6.45155 17.6954L5.47318 6.93332C5.43138 6.47346 5.15462 6.06796 4.74161 5.86146L3.4036 5.19245C2.74496 4.86314 2.478 4.06224 2.80732 3.4036ZM9.22025 10.6666C8.82823 10.6666 8.52083 11.0032 8.55632 11.3936L9.10727 17.4539C9.1697 18.1407 9.74552 18.6666 10.4351 18.6666H23.4852C24.041 18.6666 24.5385 18.3218 24.7337 17.8014L27.0714 11.5673C27.2349 11.1315 26.9127 10.6666 26.4472 10.6666H9.22025Z" fill="white"/>
</svg>
