<svg width="20" height="20" viewBox="0 0 20 20" fill="none" xmlns="http://www.w3.org/2000/svg">
<path d="M10 20C15.5228 20 20 15.5228 20 10C20 4.47715 15.5228 0 10 0C4.47715 0 0 4.47715 0 10C0 15.5228 4.47715 20 10 20Z" fill="#FC5230"/>
<path d="M15.2794 7.3959C15.6821 6.93279 15.6331 6.23102 15.1701 5.82835C14.707 5.42568 14.0052 5.47464 13.6025 5.93768L15.2794 7.3959ZM8.88542 13.0557L8.09975 13.8413C8.31764 14.0592 8.61619 14.1768 8.92408 14.1661C9.23203 14.1554 9.52169 14.0173 9.72386 13.7848L8.88542 13.0557ZM6.61553 9.21446C6.18164 8.78052 5.4781 8.78052 5.04419 9.21446C4.61027 9.64835 4.61027 10.3519 5.04419 10.7858L6.61553 9.21446ZM13.6025 5.93768L8.04697 12.3266L9.72386 13.7848L15.2794 7.3959L13.6025 5.93768ZM9.67108 12.27L6.61553 9.21446L5.04419 10.7858L8.09975 13.8413L9.67108 12.27Z" fill="white"/>
</svg>
