<svg width="60" height="63" viewBox="0 0 60 63" fill="none" xmlns="http://www.w3.org/2000/svg">
<path d="M54.328 21.8831C47.5778 25.4444 40.8594 29.1221 34.2958 33.0325C31.9619 30.7344 30.0274 28.9052 29.529 26.7302C29.5563 26.6003 29.4425 25.258 29.4493 25.0682C29.4755 24.3858 29.5096 23.7033 29.5824 23.0232C29.793 21.1081 30.1412 19.2054 30.4552 17.3027C30.965 14.2013 29.6359 11.1156 26.3484 10.2411C25.1798 9.93042 23.8495 10.0479 22.6535 10.5055C22.2166 10.2682 21.7147 10.1033 21.1424 10.04C16.3096 9.50785 11.5655 8.45144 7.01489 6.7431C2.47112 5.03815 0.527523 12.2545 5.01668 13.9403C9.45463 15.6068 14.0485 16.5785 18.7243 17.2067C18.7083 17.2948 18.6935 17.3829 18.6765 17.4711C13.2155 18.5117 7.86038 19.9816 2.58832 21.7848C-1.96683 23.3418 -0.00958304 30.5548 4.58654 28.982C8.92207 27.4985 13.3111 26.241 17.7695 25.2614C17.765 26.8907 17.9311 28.4962 18.3715 30.0396C19.4184 33.698 21.7068 36.6447 24.2774 39.3541C22.7093 40.4116 21.1321 41.45 19.4753 42.3459C16.5326 43.9379 13.2576 46.0564 12.1254 49.3827C10.0236 55.5584 16.511 58.0057 19.8053 61.776C22.9858 65.4187 28.2806 60.1163 25.1206 56.4974C23.54 54.6885 21.3916 53.5756 19.7165 51.8842C18.9109 51.0673 19.0167 51.8051 19.8975 51.0108C21.1765 49.8549 22.6604 49.177 24.1431 48.3183C28.7984 45.6248 33.1669 42.4126 37.8097 39.6727C44.4883 35.7363 51.2601 31.949 58.1196 28.3267C62.4028 26.067 58.6066 19.6246 54.328 21.8831Z" fill="white"/>
<path d="M33.9018 11.7121C37.1592 11.7121 39.7997 9.09023 39.7997 5.85603C39.7997 2.62184 37.1592 0 33.9018 0C30.6445 0 28.0039 2.62184 28.0039 5.85603C28.0039 9.09023 30.6445 11.7121 33.9018 11.7121Z" fill="white"/>
</svg>
