<svg width="88" height="88" viewBox="0 0 88 88" fill="none" xmlns="http://www.w3.org/2000/svg">
<rect width="88" height="88" rx="44" fill="url(#paint0_linear_22_2609)"/>
<path fill-rule="evenodd" clip-rule="evenodd" d="M48.6829 30.7983C49.7736 29.5024 50.3229 28.1008 50.3229 26.6014C50.3229 26.4025 50.3134 26.202 50.2929 26C49.5321 26.0395 48.724 26.2699 47.8685 26.6866C47.0114 27.1096 46.3043 27.6415 45.7487 28.2792C44.6328 29.5403 44.0078 31.0808 44.0078 32.5219C44.0078 32.7207 44.0188 32.9102 44.0409 33.0901C45.7692 33.2306 47.3634 32.3388 48.6829 30.7983ZM54.4907 52.2787C55.1126 51.3917 55.6493 50.4273 56.1022 49.3792C56.2885 48.9341 56.4653 48.4717 56.6326 47.9871C55.8655 47.6651 55.1757 47.2121 54.557 46.625C53.1933 45.3607 52.4972 43.7681 52.4783 41.8535C52.4562 39.396 53.5721 37.4814 55.8292 36.1129C54.5681 34.3199 52.6724 33.3255 50.147 33.1219C49.2158 33.043 48.0793 33.2434 46.733 33.728C45.3061 34.2505 44.468 34.514 44.2186 34.514C43.8887 34.514 43.1311 34.2899 41.9521 33.848C40.773 33.406 39.8212 33.1819 39.0952 33.1819C37.7709 33.204 36.5398 33.5497 35.4018 34.2268C34.2653 34.9023 33.3562 35.8225 32.6712 36.9905C31.8015 38.4426 31.3674 40.1773 31.3674 42.1866C31.3674 43.9417 31.6894 45.7537 32.3318 47.6272C32.9316 49.3587 33.6971 50.8819 34.6284 52.1903C35.4981 53.4183 36.2225 54.2864 36.8018 54.7915C37.7094 55.6359 38.6201 56.0369 39.5308 55.9974C40.1322 55.9785 40.9182 55.7717 41.8905 55.3771C42.8644 54.9841 43.7735 54.7915 44.6211 54.7915C45.4308 54.7915 46.3147 54.9841 47.2775 55.3771C48.2372 55.7717 49.0611 55.9658 49.7429 55.9658C50.6947 55.9437 51.5849 55.5523 52.4136 54.7915C52.9471 54.3259 53.6431 53.4893 54.4907 52.2787Z" fill="white"/>
<defs>
<linearGradient id="paint0_linear_22_2609" x1="25.5" y1="7.5" x2="53.6197" y2="76.2465" gradientUnits="userSpaceOnUse">
<stop stop-color="#D555C7"/>
<stop offset="1" stop-color="#F396EA"/>
</linearGradient>
</defs>
</svg>
