<svg width="119" height="36" viewBox="0 0 119 36" fill="none" xmlns="http://www.w3.org/2000/svg">
<path d="M23.9999 18V6H35.9999V30.1818H23.9999V18Z" fill="#1663F9"/>
<path fill-rule="evenodd" clip-rule="evenodd" d="M11.8182 6L0 18V30.1818H11.8183V18L24 6.0001V6H11.8182Z" fill="#F961D8"/>
<path d="M47.8645 25V10.4H51.7445L55.4045 19.12H55.7645L59.4045 10.4H63.3445V25H60.5245V12.54L60.8845 12.58L56.9445 22.02H54.0445L50.0845 12.58L50.4645 12.54V25H47.8645ZM67.2465 25V14.14H70.0265V25H67.2465ZM65.7265 16.22V14.14H70.0265V16.22H65.7265ZM68.2665 12.84C67.7198 12.84 67.3132 12.7 67.0465 12.42C66.7932 12.1267 66.6665 11.76 66.6665 11.32C66.6665 10.88 66.7932 10.52 67.0465 10.24C67.3132 9.96 67.7198 9.82 68.2665 9.82C68.8132 9.82 69.2132 9.96 69.4665 10.24C69.7198 10.52 69.8465 10.88 69.8465 11.32C69.8465 11.76 69.7198 12.1267 69.4665 12.42C69.2132 12.7 68.8132 12.84 68.2665 12.84ZM78.0504 25.38C77.1037 25.38 76.2837 25.22 75.5904 24.9C74.9104 24.58 74.3371 24.1533 73.8704 23.62C73.4171 23.0867 73.0771 22.4867 72.8504 21.82C72.6237 21.1533 72.5104 20.4733 72.5104 19.78V19.4C72.5104 18.6667 72.6237 17.9667 72.8504 17.3C73.0904 16.62 73.4437 16.02 73.9104 15.5C74.3771 14.9667 74.9504 14.5467 75.6304 14.24C76.3237 13.92 77.1237 13.76 78.0304 13.76C78.9771 13.76 79.8237 13.9467 80.5704 14.32C81.3171 14.68 81.9104 15.1867 82.3504 15.84C82.8037 16.4933 83.0571 17.2533 83.1104 18.12H80.4104C80.3437 17.56 80.1037 17.0933 79.6904 16.72C79.2904 16.3467 78.7371 16.16 78.0304 16.16C77.4171 16.16 76.9037 16.3067 76.4904 16.6C76.0904 16.8933 75.7904 17.3 75.5904 17.82C75.3904 18.3267 75.2904 18.9133 75.2904 19.58C75.2904 20.22 75.3837 20.8 75.5704 21.32C75.7704 21.84 76.0704 22.2467 76.4704 22.54C76.8837 22.8333 77.4104 22.98 78.0504 22.98C78.5304 22.98 78.9437 22.8933 79.2904 22.72C79.6371 22.5467 79.9104 22.3067 80.1104 22C80.3237 21.6933 80.4571 21.3467 80.5104 20.96H83.2104C83.1571 21.84 82.8971 22.6133 82.4304 23.28C81.9771 23.9333 81.3704 24.4467 80.6104 24.82C79.8637 25.1933 79.0104 25.38 78.0504 25.38ZM88.0974 20.52V18.06H90.9374C91.5108 18.06 91.9908 17.9467 92.3774 17.72C92.7774 17.4933 93.0774 17.18 93.2774 16.78C93.4908 16.38 93.5974 15.92 93.5974 15.4C93.5974 14.88 93.4908 14.42 93.2774 14.02C93.0774 13.62 92.7774 13.3133 92.3774 13.1C91.9908 12.8733 91.5108 12.76 90.9374 12.76H88.0974V10.3H90.6974C91.9241 10.3 92.9641 10.5 93.8174 10.9C94.6841 11.3 95.3441 11.8733 95.7974 12.62C96.2508 13.3533 96.4774 14.2267 96.4774 15.24V15.56C96.4774 16.5733 96.2508 17.4533 95.7974 18.2C95.3441 18.9333 94.6841 19.5067 93.8174 19.92C92.9641 20.32 91.9241 20.52 90.6974 20.52H88.0974ZM85.6574 25V10.3H88.4974V25H85.6574ZM98.6796 25V14.14H100.88V18.74H100.82C100.82 17.18 101.153 16 101.82 15.2C102.486 14.4 103.466 14 104.76 14H105.16V16.42H104.4C103.466 16.42 102.74 16.6733 102.22 17.18C101.713 17.6733 101.46 18.3933 101.46 19.34V25H98.6796ZM112.161 25.38C111.201 25.38 110.355 25.2267 109.621 24.92C108.888 24.6133 108.268 24.2 107.761 23.68C107.255 23.1467 106.868 22.5467 106.601 21.88C106.348 21.2133 106.221 20.52 106.221 19.8V19.38C106.221 18.6333 106.355 17.9267 106.621 17.26C106.901 16.58 107.295 15.98 107.801 15.46C108.321 14.9267 108.948 14.5133 109.681 14.22C110.415 13.9133 111.241 13.76 112.161 13.76C113.081 13.76 113.908 13.9133 114.641 14.22C115.375 14.5133 115.995 14.9267 116.501 15.46C117.021 15.98 117.415 16.58 117.681 17.26C117.948 17.9267 118.081 18.6333 118.081 19.38V19.8C118.081 20.52 117.948 21.2133 117.681 21.88C117.428 22.5467 117.048 23.1467 116.541 23.68C116.035 24.2 115.415 24.6133 114.681 24.92C113.948 25.2267 113.108 25.38 112.161 25.38ZM112.161 23C112.841 23 113.415 22.8533 113.881 22.56C114.348 22.2533 114.701 21.8467 114.941 21.34C115.181 20.82 115.301 20.2333 115.301 19.58C115.301 18.9133 115.175 18.3267 114.921 17.82C114.681 17.3 114.321 16.8933 113.841 16.6C113.375 16.2933 112.815 16.14 112.161 16.14C111.508 16.14 110.941 16.2933 110.461 16.6C109.995 16.8933 109.635 17.3 109.381 17.82C109.128 18.3267 109.001 18.9133 109.001 19.58C109.001 20.2333 109.121 20.82 109.361 21.34C109.615 21.8467 109.975 22.2533 110.441 22.56C110.908 22.8533 111.481 23 112.161 23Z" fill="black"/>
</svg>
